<?xml version="1.0" encoding="UTF-8" standalone="no"?>
<svg width="40px" height="40px" viewBox="0 0 40 40" version="1.1" xmlns="http://www.w3.org/2000/svg" xmlns:xlink="http://www.w3.org/1999/xlink" xmlns:sketch="http://www.bohemiancoding.com/sketch/ns">
    <!-- Generator: Sketch 3.4.3 (16618) - http://www.bohemiancoding.com/sketch -->
    <title>icon</title>
    <desc>Created with Sketch.</desc>
    <defs></defs>
    <g id="Page-1" stroke="none" stroke-width="1" fill="none" fill-rule="evenodd" sketch:type="MSPage">
        <g id="icon" sketch:type="MSLayerGroup">
            <circle id="Oval" fill="#5A9AEF" sketch:type="MSShapeGroup" cx="20" cy="20" r="20"></circle>
            <path d="M20,26.875 C18.964375,26.875 18.125,26.035625 18.125,25 L18.125,22.395625 C18.125,20.700625 19.605625,19.690625 21.0375,18.714375 C22.79,17.51875 24.130625,16.4975 24.130625,15.14875 C24.130625,12.45875 23.09625,11.458125 20.315,11.458125 C17.97125,11.458125 17.344375,13.753125 17.344375,14.0625 C17.344375,15.098125 16.505,15.9375 15.469375,15.9375 C14.43375,15.9375 13.594375,15.098125 13.594375,14.0625 C13.594375,11.91625 15.62375,7.708125 20.315,7.708125 C25.123125,7.708125 27.880625,10.42 27.880625,15.14875 C27.880625,18.58625 25.034375,20.5275 23.150625,21.8125 C22.715625,22.10875 22.1475,22.496875 21.875,22.74625 L21.875,25 C21.875,26.035625 21.035625,26.875 20,26.875 L20,26.875 Z" id="Shape" fill="#FFFFFF" sketch:type="MSShapeGroup"></path>
            <circle id="Oval" fill="#FFFFFF" sketch:type="MSShapeGroup" cx="20" cy="31.25" r="1.875"></circle>
        </g>
    </g>
</svg>
